<svg width="120" height="120" version="1.1" viewBox="0 0 120 120" xmlns="http://www.w3.org/2000/svg">
 <g transform="matrix(.46966 0 0 .46966 -4.3948 6.3246)" fill="#3a4354" stroke="#3a4354">
  <g transform="translate(33.859 17.955)" stroke-width=".51301">
   <path transform="translate(-33.859 -17.955)" d="m138.91 24.953c-7.2664-0.01351-9.4656 0.16947-13.188 1.0957-13.489 3.357-21.99 9.0965-26.256 17.73-4.5331 9.1743-3.6346 14.904 4.2402 27.016 3.9305 6.0454 7.7547 13.488 9.3594 18.213 1.4168 4.1721 1.6522 11.437 0.48242 14.877-1.8379 5.4048-8.5709 12.51-16.104 16.992-3.4314 2.0419-7.0748 3.4984-16.359 6.543-17.547 5.7539-24.064 9.3256-29.375 16.092-3.8555 4.9123-4.0127 5.6994-4.25 21.293l-0.08984 5.9609 10.227-8.3008v-9.9883l4.3516-4.1191c5.3411-5.0558 7.7241-6.2402 22.068-10.965 2.6224-0.86374 5.3579-1.8268 7.8379-2.7363l30.455-24.721c0.37428-0.81178 0.72742-1.6303 1.0371-2.4648 0.96858-2.6102 1.1427-4.1156 1.1484-9.998 6e-3 -6.2402-0.13708-7.3581-1.4434-11.287-1.8609-5.5973-4.3401-10.511-10.678-21.168-3.2135-5.4036-5.2106-9.3251-5.375-10.551-0.85139-6.3476 8.2457-14.966 18.91-17.914 4.6883-1.2958 20.296-1.26 25.057 0.05664 8.1855 2.264 16.283 8.4948 18.146 13.963 1.4181 4.1618 1.5388 3.8336-6.2441 16.889-4.1182 6.9077-6.8046 12.007-8.4961 16.449l21.244-17.242c1.6841-2.8115 3.0116-5.291 3.3086-6.291 1.0044-3.382 0.98047-9.1963-0.0508-12.701-2.8566-9.7084-12.718-17.758-26.15-21.346-4.5453-1.214-6.0319-1.3625-13.814-1.377zm25.209 62.943-12.236 9.9336c0.0335 4.0808 0.6635 7.6135 2.0332 10.98l8.8965-7.2227c-0.3573-1.4868-0.56054-2.9839-0.56054-4.4805 0-2.6521 0.63504-5.7399 1.8672-9.2109zm2.7715 22.279-8.1465 6.6133c0.80391 1.0035 1.6775 2.0184 2.6445 3.0566 7.9588 8.545 15.697 12.745 33.953 18.428 10.701 3.331 14.568 5.3014 19.064 9.7148 4.4372 4.3555 4.7831 5.3673 4.7871 13.994l4e-3 6.2852h-123.88l-12.641 10.26 55.803 2e-3h91.23l-0.14648-10.133c-0.1806-12.404-0.70963-18.316-1.8555-20.73-1.1314-2.3842-4.6891-6.5361-8.0859-9.4356-3.7521-3.2027-11.372-6.9647-18.641-9.2031-12.988-3.9999-15.969-5.0266-18.965-6.5371-6.5407-3.2977-11.712-7.5844-15.129-12.314zm-101.79 58.092-12.639 10.26h15.559l12.641-10.26z"/>
   <path transform="translate(-33.859 -17.955)" d="m46.314 192.38v3.9961l4.9219-3.9961zm19.578 0-12.639 10.26h177.23v-10.26h-92.084z"/>
  </g>
  <path d="m25.968 206.45v-6.442l220.99-179.87v12.884l-220.99 179.87z" stroke-width=".62972"/>
 </g>
</svg>
